<svg height="512pt" viewBox="-49 0 512 512" width="512pt" xmlns="http://www.w3.org/2000/svg"><path d="m175.195312 138.804688v235.175781c0 45.871093-36.644531 83.046875-82.515624 83.046875v47.46875h-85.183594v-281.816406c0-46.328126 37.554687-83.875 83.875-83.875zm0 0" fill="#edb48a"/><path d="m92.679688 138.804688h82.515624v365.695312h-82.515624zm0 0" fill="#e29c6d"/><path d="m370.394531 503.753906h-215.15625c-19.835937 0-35.917969-16.078125-35.917969-35.917968v-424.417969c0-19.835938 16.082032-35.917969 35.917969-35.917969h215.15625c19.835938 0 35.917969 16.078125 35.917969 35.917969v424.417969c0 19.835937-16.082031 35.917968-35.917969 35.917968zm0 0" fill="#618baa"/><path d="m406.308594 43.414062v424.425782c0 19.839844-16.074219 35.914062-35.914063 35.914062h-30.964843c19.839843 0 35.917968-16.074218 35.917968-35.914062v-424.425782c0-19.839843-16.078125-35.914062-35.917968-35.914062h30.964843c19.839844 0 35.914063 16.074219 35.914063 35.914062zm0 0" fill="#4e7693"/><path d="m346.285156 60.292969-5.136718 13.53125c-1.472657 3.875-5.1875 6.441406-9.335938 6.441406h-137.992188c-4.148437 0-7.863281-2.566406-9.335937-6.445313l-5.132813-13.53125c-1.472656-3.875-5.191406-6.441406-9.335937-6.441406h-50.695313v398.5625h286.992188v-398.558594h-50.695312c-4.144532 0-7.859376 2.5625-9.332032 6.441407zm0 0" fill="#5be167"/><path d="m375.347656 53.851562h30.960938v398.558594h-30.960938zm0 0" fill="#1fc974"/><path d="m195.207031 257.929688h-30.847656c-5.046875 0-9.136719-4.09375-9.136719-9.140626v-30.84375c0-5.046874 4.089844-9.136718 9.136719-9.136718h30.847656c5.046875 0 9.136719 4.089844 9.136719 9.136718v30.84375c0 5.046876-4.089844 9.140626-9.136719 9.140626zm0 0" fill="#fd9e28"/><path d="m204.34375 217.945312v30.84375c0 5.046876-4.09375 9.140626-9.136719 9.140626h-18.273437c5.042968 0 9.136718-4.09375 9.136718-9.140626v-30.84375c0-5.046874-4.09375-9.136718-9.136718-9.136718h18.273437c5.042969 0 9.136719 4.089844 9.136719 9.136718zm0 0" fill="#fd8724"/><path d="m278.242188 257.929688h-30.847657c-5.046875 0-9.136719-4.09375-9.136719-9.140626v-30.84375c0-5.046874 4.089844-9.136718 9.136719-9.136718h30.847657c5.042968 0 9.136718 4.089844 9.136718 9.136718v30.84375c0 5.046876-4.09375 9.140626-9.136718 9.140626zm0 0" fill="#fd9e28"/><path d="m287.378906 217.945312v30.84375c0 5.046876-4.09375 9.140626-9.136718 9.140626h-18.277344c5.046875 0 9.136718-4.09375 9.136718-9.140626v-30.84375c0-5.046874-4.089843-9.136718-9.136718-9.136718h18.273437c5.046875 0 9.140625 4.089844 9.140625 9.136718zm0 0" fill="#fd8724"/><path d="m361.273438 257.929688h-30.847657c-5.042969 0-9.136719-4.09375-9.136719-9.140626v-30.84375c0-5.046874 4.09375-9.136718 9.136719-9.136718h30.847657c5.046874 0 9.136718 4.089844 9.136718 9.136718v30.84375c0 5.046876-4.089844 9.140626-9.136718 9.140626zm0 0" fill="#fd9e28"/><path d="m370.410156 217.945312v30.84375c0 5.046876-4.09375 9.140626-9.136718 9.140626h-18.273438c5.042969 0 9.136719-4.09375 9.136719-9.140626v-30.84375c0-5.046874-4.09375-9.136718-9.136719-9.136718h18.273438c5.042968 0 9.136718 4.089844 9.136718 9.136718zm0 0" fill="#fd8724"/><path d="m195.207031 411.695312h-30.847656c-5.046875 0-9.136719-4.089843-9.136719-9.136718v-30.847656c0-5.046876 4.089844-9.136719 9.136719-9.136719h30.847656c5.046875 0 9.136719 4.089843 9.136719 9.136719v30.847656c0 5.046875-4.089844 9.136718-9.136719 9.136718zm0 0" fill="#43a3f9"/><path d="m204.34375 371.714844v30.84375c0 5.046875-4.09375 9.136718-9.136719 9.136718h-18.273437c5.042968 0 9.136718-4.089843 9.136718-9.136718v-30.84375c0-5.046875-4.09375-9.140625-9.136718-9.140625h18.273437c5.042969 0 9.136719 4.09375 9.136719 9.140625zm0 0" fill="#1685fb"/><path d="m278.242188 411.695312h-30.847657c-5.046875 0-9.136719-4.089843-9.136719-9.136718v-30.847656c0-5.046876 4.089844-9.136719 9.136719-9.136719h30.847657c5.042968 0 9.136718 4.089843 9.136718 9.136719v30.847656c0 5.046875-4.09375 9.136718-9.136718 9.136718zm0 0" fill="#43a3f9"/><path d="m287.378906 371.714844v30.84375c0 5.046875-4.09375 9.136718-9.136718 9.136718h-18.277344c5.046875 0 9.136718-4.089843 9.136718-9.136718v-30.84375c0-5.046875-4.089843-9.140625-9.136718-9.140625h18.273437c5.046875 0 9.140625 4.09375 9.140625 9.140625zm0 0" fill="#1685fb"/><path d="m361.273438 411.695312h-30.847657c-5.042969 0-9.136719-4.089843-9.136719-9.136718v-30.847656c0-5.046876 4.09375-9.136719 9.136719-9.136719h30.847657c5.046874 0 9.136718 4.089843 9.136718 9.136719v30.847656c0 5.046875-4.089844 9.136718-9.136718 9.136718zm0 0" fill="#43a3f9"/><path d="m370.410156 371.714844v30.84375c0 5.046875-4.09375 9.136718-9.136718 9.136718h-18.273438c5.042969 0 9.136719-4.089843 9.136719-9.136718v-30.84375c0-5.046875-4.09375-9.140625-9.136719-9.140625h18.273438c5.042968 0 9.136718 4.09375 9.136718 9.140625zm0 0" fill="#1685fb"/><path d="m92.679688 240.203125c0-22.785156 18.472656-41.253906 41.257812-41.253906s41.253906 18.46875 41.253906 41.253906v133.78125c0 36.386719-23.066406 67.308594-55.5 78.535156-16.148437 5.585938-27.011718 20.746094-27.011718 37.832031zm0 0" fill="#edb48a"/><path d="m175.195312 240.203125v133.78125c0 34.875-21.199218 64.730469-51.523437 77.03125 16.945313-15.214844 27.558594-37.382813 27.558594-62.054687v-148.757813c0-11.390625-4.613281-21.707031-12.082031-29.175781-4.734376-4.730469-10.613282-8.328125-17.195313-10.3125 3.796875-1.148438 7.820313-1.769532 11.984375-1.769532 11.390625 0 21.707031 4.613282 29.175781 12.082032s12.082031 17.785156 12.082031 29.175781zm0 0" fill="#e29c6d"/><path d="m195.207031 172.347656h-30.847656c-5.046875 0-9.136719-4.089844-9.136719-9.136718v-30.847657c0-5.042969 4.089844-9.136719 9.136719-9.136719h30.847656c5.046875 0 9.136719 4.09375 9.136719 9.136719v30.847657c0 5.046874-4.089844 9.136718-9.136719 9.136718zm0 0" fill="#e3f4ff"/><path d="m204.34375 132.367188v30.847656c0 5.042968-4.09375 9.136718-9.136719 9.136718h-18.273437c5.042968 0 9.136718-4.09375 9.136718-9.136718v-30.847656c0-5.046876-4.09375-9.136719-9.136718-9.136719h18.273437c5.042969 0 9.136719 4.089843 9.136719 9.136719zm0 0" fill="#bddff4"/><path d="m278.242188 172.347656h-30.847657c-5.046875 0-9.136719-4.089844-9.136719-9.136718v-30.847657c0-5.042969 4.089844-9.136719 9.136719-9.136719h30.847657c5.042968 0 9.136718 4.09375 9.136718 9.136719v30.847657c0 5.046874-4.09375 9.136718-9.136718 9.136718zm0 0" fill="#e3f4ff"/><path d="m287.378906 132.367188v30.847656c0 5.042968-4.09375 9.136718-9.136718 9.136718h-18.277344c5.046875 0 9.136718-4.09375 9.136718-9.136718v-30.847656c0-5.046876-4.089843-9.136719-9.136718-9.136719h18.273437c5.046875 0 9.140625 4.089843 9.140625 9.136719zm0 0" fill="#bddff4"/><path d="m361.273438 172.347656h-30.847657c-5.042969 0-9.136719-4.089844-9.136719-9.136718v-30.847657c0-5.042969 4.09375-9.136719 9.136719-9.136719h30.847657c5.046874 0 9.136718 4.09375 9.136718 9.136719v30.847657c0 5.046874-4.089844 9.136718-9.136718 9.136718zm0 0" fill="#e3f4ff"/><path d="m370.410156 132.367188v30.847656c0 5.042968-4.09375 9.136718-9.136718 9.136718h-18.273438c5.042969 0 9.136719-4.09375 9.136719-9.136718v-30.847656c0-5.046876-4.09375-9.136719-9.136719-9.136719h18.273438c5.042968 0 9.136718 4.089843 9.136718 9.136719zm0 0" fill="#bddff4"/><path d="m7.5 394.535156c-4.140625 0-7.5 3.359375-7.5 7.5v102.464844c0 4.140625 3.359375 7.5 7.5 7.5s7.5-3.359375 7.5-7.5v-102.464844c0-4.140625-3.359375-7.5-7.5-7.5zm0 0"/><path d="m294.878906 217.945312c0-9.175781-7.464844-16.636718-16.636718-16.636718h-30.847657c-9.171875 0-16.636719 7.460937-16.636719 16.636718v30.84375c0 9.175782 7.460938 16.640626 16.636719 16.640626h30.847657c9.171874 0 16.636718-7.464844 16.636718-16.640626zm-15 30.84375c0 .90625-.734375 1.640626-1.636718 1.640626h-30.847657c-.902343 0-1.636719-.734376-1.636719-1.640626v-30.84375c0-.902343.734376-1.636718 1.636719-1.636718h30.847657c.902343 0 1.636718.730468 1.636718 1.636718zm0 0"/><path d="m377.910156 217.945312c0-9.175781-7.460937-16.636718-16.636718-16.636718h-30.847657c-9.171875 0-16.636719 7.460937-16.636719 16.636718v30.84375c0 9.175782 7.464844 16.640626 16.636719 16.640626h30.847657c9.175781 0 16.636718-7.464844 16.636718-16.640626zm-15 30.84375c0 .90625-.734375 1.640626-1.636718 1.640626h-30.847657c-.902343 0-1.636719-.734376-1.636719-1.640626v-30.84375c0-.902343.734376-1.636718 1.636719-1.636718h30.847657c.902343 0 1.636718.730468 1.636718 1.636718zm0 0"/><path d="m278.238281 355.074219h-30.84375c-9.175781 0-16.636719 7.464843-16.636719 16.640625v30.84375c0 9.175781 7.460938 16.636718 16.636719 16.636718h30.84375c9.175781 0 16.640625-7.460937 16.640625-16.636718v-30.84375c0-9.175782-7.464844-16.640625-16.640625-16.640625zm1.640625 47.484375c0 .902344-.734375 1.636718-1.636718 1.636718h-30.847657c-.902343 0-1.636719-.730468-1.636719-1.636718v-30.84375c0-.90625.734376-1.640625 1.636719-1.640625h30.847657c.902343 0 1.636718.734375 1.636718 1.640625zm0 0"/><path d="m361.273438 355.074219h-30.847657c-9.171875 0-16.636719 7.464843-16.636719 16.640625v30.84375c0 9.175781 7.464844 16.636718 16.636719 16.636718h30.847657c9.175781 0 16.636718-7.460937 16.636718-16.636718v-30.84375c0-9.175782-7.460937-16.640625-16.636718-16.640625zm1.636718 47.484375c0 .902344-.734375 1.636718-1.636718 1.636718h-30.847657c-.902343 0-1.636719-.730468-1.636719-1.636718v-30.84375c0-.90625.734376-1.640625 1.636719-1.640625h30.847657c.902343 0 1.636718.734375 1.636718 1.640625zm0 0"/><path d="m406.3125 291.839844c4.140625 0 7.5-3.359375 7.5-7.5v-240.921875c0-23.941407-19.476562-43.417969-43.417969-43.417969h-141.085937c-4.140625 0-7.5 3.359375-7.5 7.5s3.359375 7.5 7.5 7.5h141.085937c15.671875 0 28.417969 12.746094 28.417969 28.417969v2.933593h-43.191406c-7.21875 0-13.785156 4.53125-16.347656 11.28125l-5.136719 13.527344c-.363281.960938-1.296875 1.605469-2.324219 1.605469h-137.992188c-1.023437 0-1.957031-.644531-2.324218-1.605469l-5.132813-13.527344c-2.5625-6.75-9.132812-11.28125-16.347656-11.28125h-43.195313v-2.933593c0-15.671875 12.75-28.417969 28.417969-28.417969h39.546875c4.144532 0 7.5-3.359375 7.5-7.5s-3.355468-7.5-7.5-7.5h-39.546875c-23.9375 0-43.417969 19.476562-43.417969 43.417969v87.886719h-20.445312c-50.386719 0-91.375 40.988281-91.375 91.375v141.890624c0 4.140626 3.359375 7.5 7.5 7.5s7.5-3.359374 7.5-7.5v-141.894531c0-42.113281 34.261719-76.375 76.375-76.375h20.445312v50.472657c-15.792968 8.078124-26.640624 24.503906-26.640624 43.429687v70.390625c-13.238282 3.351562-23.066407 15.363281-23.066407 29.632812 0 4.140626 3.359375 7.5 7.5 7.5s7.5-3.359374 7.5-7.5c0-5.867187 3.265625-10.980468 8.066407-13.632812v21.066406c0 4.140625 3.359374 7.5 7.5 7.5 4.144531 0 7.5-3.359375 7.5-7.5v-107.457031c0-18.613281 15.144531-33.753906 33.757812-33.753906s33.753906 15.144531 33.753906 33.753906v133.78125c0 32.289063-20.277344 61-50.457031 71.445313-14.039063 4.859374-24.8125 15.695312-29.558594 29.730468-1.328125 3.925782.777344 8.183594 4.703125 9.507813.792969.269531 1.605469.398437 2.402344.398437 3.125 0 6.042969-1.972656 7.101562-5.101562 1.953126-5.773438 5.410157-10.75 9.9375-14.53125v2.402344c0 23.9375 19.476563 43.417968 43.417969 43.417968h215.15625c23.941407 0 43.417969-19.480468 43.417969-43.417968v-148.972657c0-4.140625-3.359375-7.5-7.5-7.5s-7.5 3.359375-7.5 7.5v126.050781h-250.074219c8.894531-7.121093 16.328125-15.863281 21.957031-25.71875h24.511719c9.175781 0 16.636719-7.460937 16.636719-16.636718v-30.84375c0-9.175782-7.460938-16.640625-16.636719-16.640625h-12.515625v-89.644531h12.515625c9.175781 0 16.636719-7.464844 16.636719-16.640626v-30.84375c0-9.175781-7.460938-16.636718-16.636719-16.636718h-30.847656c-.332031 0-.65625.027344-.976563.070312-8.1875-6.226562-18.390624-9.929687-29.445312-9.929687-2.417969 0-4.792969.183593-7.117188.523437v-130.621094h43.195313c1.023437 0 1.957031.640626 2.324219 1.601563l5.132812 13.53125c2.5625 6.746094 9.132813 11.28125 16.347656 11.28125h137.992188c7.214844 0 13.785156-4.535156 16.347656-11.28125l5.136719-13.53125c.363281-.960937 1.296875-1.605469 2.320313-1.605469h43.195312v222.992188c0 4.140625 3.359375 7.5 7.5 7.5zm-7.5 168.074218v7.921876c0 15.671874-12.75 28.417968-28.417969 28.417968h-215.15625c-15.667969 0-28.417969-12.746094-28.417969-28.417968v-7.925782h.027344 271.964844zm-203.605469-89.839843c.902344 0 1.636719.734375 1.636719 1.640625v30.84375c0 .902344-.734375 1.636718-1.636719 1.636718h-17.664062c3.339843-9.519531 5.148437-19.703124 5.148437-30.210937v-3.910156zm0-153.765625c.902344 0 1.636719.730468 1.636719 1.636718v30.84375c0 .90625-.734375 1.640626-1.636719 1.640626h-12.515625v-10.226563c0-8.679687-2.289062-16.828125-6.28125-23.894531zm0 0"/><path d="m164.359375 115.730469c-9.171875 0-16.636719 7.460937-16.636719 16.636719v30.847656c0 9.171875 7.464844 16.636718 16.636719 16.636718h30.847656c9.175781 0 16.636719-7.464843 16.636719-16.636718v-30.847656c0-9.175782-7.460938-16.636719-16.636719-16.636719zm32.484375 16.636719v30.847656c0 .898437-.734375 1.636718-1.636719 1.636718h-30.847656c-.902344 0-1.636719-.734374-1.636719-1.636718v-30.847656c0-.902344.734375-1.636719 1.636719-1.636719h30.847656c.902344 0 1.636719.734375 1.636719 1.636719zm0 0"/><path d="m294.878906 132.367188c0-9.175782-7.464844-16.636719-16.636718-16.636719h-30.847657c-9.171875 0-16.636719 7.460937-16.636719 16.636719v30.847656c0 9.171875 7.460938 16.636718 16.636719 16.636718h30.847657c9.171874 0 16.636718-7.464843 16.636718-16.636718zm-15 30.84375c0 .902343-.734375 1.636718-1.636718 1.636718h-30.847657c-.902343 0-1.636719-.734375-1.636719-1.636718v-30.847657c0-.902343.734376-1.636719 1.636719-1.636719h30.847657c.902343 0 1.636718.734376 1.636718 1.636719zm0 0"/><path d="m377.910156 132.367188c0-9.175782-7.460937-16.636719-16.636718-16.636719h-30.847657c-9.171875 0-16.636719 7.460937-16.636719 16.636719v30.847656c0 9.171875 7.464844 16.636718 16.636719 16.636718h30.847657c9.175781 0 16.636718-7.464843 16.636718-16.636718zm-15 30.84375c0 .902343-.734375 1.636718-1.636718 1.636718h-30.847657c-.902343 0-1.636719-.734375-1.636719-1.636718v-30.847657c0-.902343.734376-1.636719 1.636719-1.636719h30.847657c.902343 0 1.636718.734376 1.636718 1.636719zm0 0"/></svg>