<svg width="85" height="46" viewBox="0 0 85 46" fill="none" xmlns="http://www.w3.org/2000/svg">
<path d="M4.25 22V13.7969H4.83594L4.92188 14.8281C5.76042 14.1406 6.66927 13.7969 7.64844 13.7969C8.9401 13.7969 9.77604 14.1719 10.1562 14.9219C11.099 14.1719 12.0547 13.7969 13.0234 13.7969C14.8568 13.7969 15.7734 14.7057 15.7734 16.5234V22H14.9531V16.5234C14.9531 15.1953 14.3073 14.5312 13.0156 14.5312C11.9844 14.5312 11.1328 14.8854 10.4609 15.5938V22H9.64062V16.3906C9.64062 15.151 8.97396 14.5312 7.64062 14.5312C6.67188 14.5312 5.8151 14.8854 5.07031 15.5938V22H4.25ZM19.3359 10.8281V11.7656H18.3594V10.8281H19.3359ZM19.2578 13.7969V22H18.4375V13.7969H19.2578ZM21.9219 22V13.7969H22.5078L22.6094 14.8438C23.6562 14.1458 24.6823 13.7969 25.6875 13.7969C27.6823 13.7969 28.6797 14.6589 28.6797 16.3828V22H27.8594V16.3594C27.8594 15.1406 27.1224 14.5312 25.6484 14.5312C24.6641 14.5312 23.6953 14.8776 22.7422 15.5703V22H21.9219ZM32.2422 10.8281V11.7656H31.2656V10.8281H32.2422ZM32.1641 13.7969V22H31.3438V13.7969H32.1641ZM14.3828 28.8281L9.48438 40H8.19531L3.27344 28.8281H4.17188L8.86719 39.3672L13.5078 28.8281H14.3828ZM16.9609 28.8281V29.7656H15.9844V28.8281H16.9609ZM16.8828 31.7969V40H16.0625V31.7969H16.8828ZM19.0781 37.6797C19.0781 36.0495 20.1615 35.2344 22.3281 35.2344C23.0938 35.2344 23.9115 35.2865 24.7812 35.3906V34.3828C24.7812 33.1276 23.9922 32.5 22.4141 32.5C21.5703 32.5 20.7057 32.6302 19.8203 32.8906V32.1875C20.7057 31.9271 21.5703 31.7969 22.4141 31.7969C24.5391 31.7969 25.6016 32.6458 25.6016 34.3438V40H25.1016L24.9141 39.1875C23.888 39.7292 22.8932 40 21.9297 40C20.0286 40 19.0781 39.2266 19.0781 37.6797ZM22.3281 35.9375C20.7083 35.9375 19.8984 36.5104 19.8984 37.6562C19.8984 38.75 20.5755 39.2969 21.9297 39.2969C22.9297 39.2969 23.8802 39.0312 24.7812 38.5V36.0938C23.9115 35.9896 23.0938 35.9375 22.3281 35.9375ZM29.1641 28.8281V29.7656H28.1875V28.8281H29.1641ZM29.0859 31.7969V39.375C29.0859 41.0312 28.6823 42.1979 27.875 42.875L27.2891 42.3672C27.9401 41.7682 28.2656 40.7708 28.2656 39.375V31.7969H29.0859ZM35.0547 31.7969C37.2995 31.7969 38.4219 33.0391 38.4219 35.5234C38.4219 35.7005 38.4167 35.8854 38.4062 36.0781H32.1797C32.1797 38.224 33.3151 39.2969 35.5859 39.2969C36.5182 39.2969 37.3464 39.1667 38.0703 38.9062V39.6094C37.3464 39.8698 36.5182 40 35.5859 40C32.7682 40 31.3594 38.6016 31.3594 35.8047C31.3594 33.1328 32.5911 31.7969 35.0547 31.7969ZM32.1797 35.3438H37.6328C37.6016 33.4375 36.7422 32.4844 35.0547 32.4844C33.2318 32.4844 32.2734 33.4375 32.1797 35.3438ZM40.375 39.6094V38.8281C41.2865 39.1406 42.1823 39.2969 43.0625 39.2969C44.7865 39.2969 45.6484 38.75 45.6484 37.6562C45.6484 36.7708 45.0104 36.3281 43.7344 36.3281H42.6875C40.9688 36.3281 40.1094 35.599 40.1094 34.1406C40.1094 32.5781 41.2474 31.7969 43.5234 31.7969C44.3984 31.7969 45.2917 31.9271 46.2031 32.1875V32.9688C45.2917 32.6562 44.3984 32.5 43.5234 32.5C41.7943 32.5 40.9297 33.0469 40.9297 34.1406C40.9297 35.0781 41.5156 35.5469 42.6875 35.5469H43.7344C45.5573 35.5469 46.4688 36.25 46.4688 37.6562C46.4688 39.2188 45.3333 40 43.0625 40C42.1823 40 41.2865 39.8698 40.375 39.6094Z" fill="black"/>
<path d="M4.25 22H3.95V22.3H4.25V22ZM4.25 13.7969V13.4969H3.95V13.7969H4.25ZM4.83594 13.7969L5.1349 13.772L5.11198 13.4969H4.83594V13.7969ZM4.92188 14.8281L4.62291 14.853L4.67035 15.4223L5.11208 15.0601L4.92188 14.8281ZM10.1562 14.9219L9.88867 15.0575L10.0551 15.3857L10.343 15.1566L10.1562 14.9219ZM15.7734 22V22.3H16.0734V22H15.7734ZM14.9531 22H14.6531V22.3H14.9531V22ZM10.4609 15.5938L10.2433 15.3873L10.1609 15.4741V15.5938H10.4609ZM10.4609 22V22.3H10.7609V22H10.4609ZM9.64062 22H9.34062V22.3H9.64062V22ZM5.07031 15.5938L4.86357 15.3764L4.77031 15.4651V15.5938H5.07031ZM5.07031 22V22.3H5.37031V22H5.07031ZM4.55 22V13.7969H3.95V22H4.55ZM4.25 14.0969H4.83594V13.4969H4.25V14.0969ZM4.53697 13.8218L4.62291 14.853L5.22084 14.8032L5.1349 13.772L4.53697 13.8218ZM5.11208 15.0601C5.90313 14.4116 6.74617 14.0969 7.64844 14.0969V13.4969C6.59237 13.4969 5.61771 13.8697 4.73167 14.5961L5.11208 15.0601ZM7.64844 14.0969C8.89388 14.0969 9.58402 14.4566 9.88867 15.0575L10.4238 14.7862C9.96806 13.8872 8.98633 13.4969 7.64844 13.4969V14.0969ZM10.343 15.1566C11.2459 14.4383 12.1377 14.0969 13.0234 14.0969V13.4969C11.9717 13.4969 10.952 13.9054 9.96947 14.6871L10.343 15.1566ZM13.0234 14.0969C13.8945 14.0969 14.4926 14.3127 14.8747 14.6916C15.2564 15.07 15.4734 15.6615 15.4734 16.5234H16.0734C16.0734 15.5677 15.8322 14.7959 15.2972 14.2655C14.7626 13.7355 13.9857 13.4969 13.0234 13.4969V14.0969ZM15.4734 16.5234V22H16.0734V16.5234H15.4734ZM15.7734 21.7H14.9531V22.3H15.7734V21.7ZM15.2531 22V16.5234H14.6531V22H15.2531ZM15.2531 16.5234C15.2531 15.8152 15.081 15.2285 14.6838 14.8201C14.2851 14.4102 13.7099 14.2312 13.0156 14.2312V14.8313C13.6131 14.8313 14.0065 14.9843 14.2537 15.2385C14.5023 15.4941 14.6531 15.9036 14.6531 16.5234H15.2531ZM13.0156 14.2312C11.9073 14.2312 10.9753 14.6156 10.2433 15.3873L10.6786 15.8002C11.2903 15.1553 12.0615 14.8313 13.0156 14.8313V14.2312ZM10.1609 15.5938V22H10.7609V15.5938H10.1609ZM10.4609 21.7H9.64062V22.3H10.4609V21.7ZM9.94063 22V16.3906H9.34062V22H9.94063ZM9.94063 16.3906C9.94063 15.7188 9.75893 15.1613 9.34489 14.7764C8.93498 14.3953 8.34832 14.2312 7.64062 14.2312V14.8313C8.26626 14.8313 8.6796 14.9771 8.93636 15.2158C9.18899 15.4507 9.34062 15.8229 9.34062 16.3906H9.94063ZM7.64062 14.2312C6.5899 14.2312 5.66038 14.6186 4.86357 15.3764L5.27706 15.8111C5.96983 15.1523 6.75385 14.8313 7.64062 14.8313V14.2312ZM4.77031 15.5938V22H5.37031V15.5938H4.77031ZM5.07031 21.7H4.25V22.3H5.07031V21.7ZM19.3359 10.8281H19.6359V10.5281H19.3359V10.8281ZM19.3359 11.7656V12.0656H19.6359V11.7656H19.3359ZM18.3594 11.7656H18.0594V12.0656H18.3594V11.7656ZM18.3594 10.8281V10.5281H18.0594V10.8281H18.3594ZM19.2578 13.7969H19.5578V13.4969H19.2578V13.7969ZM19.2578 22V22.3H19.5578V22H19.2578ZM18.4375 22H18.1375V22.3H18.4375V22ZM18.4375 13.7969V13.4969H18.1375V13.7969H18.4375ZM19.0359 10.8281V11.7656H19.6359V10.8281H19.0359ZM19.3359 11.4656H18.3594V12.0656H19.3359V11.4656ZM18.6594 11.7656V10.8281H18.0594V11.7656H18.6594ZM18.3594 11.1281H19.3359V10.5281H18.3594V11.1281ZM18.9578 13.7969V22H19.5578V13.7969H18.9578ZM19.2578 21.7H18.4375V22.3H19.2578V21.7ZM18.7375 22V13.7969H18.1375V22H18.7375ZM18.4375 14.0969H19.2578V13.4969H18.4375V14.0969ZM21.9219 22H21.6219V22.3H21.9219V22ZM21.9219 13.7969V13.4969H21.6219V13.7969H21.9219ZM22.5078 13.7969L22.8064 13.7679L22.7801 13.4969H22.5078V13.7969ZM22.6094 14.8438L22.3108 14.8727L22.3591 15.3711L22.7758 15.0934L22.6094 14.8438ZM28.6797 22V22.3H28.9797V22H28.6797ZM27.8594 22H27.5594V22.3H27.8594V22ZM22.7422 15.5703L22.5658 15.3276L22.4422 15.4175V15.5703H22.7422ZM22.7422 22V22.3H23.0422V22H22.7422ZM22.2219 22V13.7969H21.6219V22H22.2219ZM21.9219 14.0969H22.5078V13.4969H21.9219V14.0969ZM22.2092 13.8258L22.3108 14.8727L22.908 14.8148L22.8064 13.7679L22.2092 13.8258ZM22.7758 15.0934C23.7858 14.42 24.7549 14.0969 25.6875 14.0969V13.4969C24.6097 13.4969 23.5267 13.8716 22.443 14.5941L22.7758 15.0934ZM25.6875 14.0969C26.6485 14.0969 27.3133 14.3054 27.7355 14.6703C28.1493 15.028 28.3797 15.5794 28.3797 16.3828H28.9797C28.9797 15.4623 28.7114 14.7207 28.1278 14.2164C27.5526 13.7193 26.7213 13.4969 25.6875 13.4969V14.0969ZM28.3797 16.3828V22H28.9797V16.3828H28.3797ZM28.6797 21.7H27.8594V22.3H28.6797V21.7ZM28.1594 22V16.3594H27.5594V22H28.1594ZM28.1594 16.3594C28.1594 15.6871 27.9534 15.1338 27.4978 14.7571C27.0532 14.3894 26.4193 14.2312 25.6484 14.2312V14.8313C26.3516 14.8313 26.8231 14.9778 27.1155 15.2195C27.3969 15.4522 27.5594 15.8129 27.5594 16.3594H28.1594ZM25.6484 14.2312C24.589 14.2312 23.5598 14.6052 22.5658 15.3276L22.9186 15.813C23.8308 15.15 24.7391 14.8313 25.6484 14.8313V14.2312ZM22.4422 15.5703V22H23.0422V15.5703H22.4422ZM22.7422 21.7H21.9219V22.3H22.7422V21.7ZM32.2422 10.8281H32.5422V10.5281H32.2422V10.8281ZM32.2422 11.7656V12.0656H32.5422V11.7656H32.2422ZM31.2656 11.7656H30.9656V12.0656H31.2656V11.7656ZM31.2656 10.8281V10.5281H30.9656V10.8281H31.2656ZM32.1641 13.7969H32.4641V13.4969H32.1641V13.7969ZM32.1641 22V22.3H32.4641V22H32.1641ZM31.3438 22H31.0437V22.3H31.3438V22ZM31.3438 13.7969V13.4969H31.0437V13.7969H31.3438ZM31.9422 10.8281V11.7656H32.5422V10.8281H31.9422ZM32.2422 11.4656H31.2656V12.0656H32.2422V11.4656ZM31.5656 11.7656V10.8281H30.9656V11.7656H31.5656ZM31.2656 11.1281H32.2422V10.5281H31.2656V11.1281ZM31.8641 13.7969V22H32.4641V13.7969H31.8641ZM32.1641 21.7H31.3438V22.3H32.1641V21.7ZM31.6438 22V13.7969H31.0437V22H31.6438ZM31.3438 14.0969H32.1641V13.4969H31.3438V14.0969ZM14.3828 28.8281L14.6576 28.9486L14.8419 28.5281H14.3828V28.8281ZM9.48438 40V40.3H9.68041L9.75913 40.1205L9.48438 40ZM8.19531 40L7.92077 40.121L7.99966 40.3H8.19531V40ZM3.27344 28.8281V28.5281H2.81345L2.9989 28.9491L3.27344 28.8281ZM4.17188 28.8281L4.44591 28.706L4.36665 28.5281H4.17188V28.8281ZM8.86719 39.3672L8.59315 39.4893L8.86879 40.108L9.14175 39.4881L8.86719 39.3672ZM13.5078 28.8281V28.5281H13.3121L13.2333 28.7072L13.5078 28.8281ZM14.1081 28.7077L9.20962 39.8795L9.75913 40.1205L14.6576 28.9486L14.1081 28.7077ZM9.48438 39.7H8.19531V40.3H9.48438V39.7ZM8.46985 39.879L3.54798 28.7072L2.9989 28.9491L7.92077 40.121L8.46985 39.879ZM3.27344 29.1281H4.17188V28.5281H3.27344V29.1281ZM3.89784 28.9502L8.59315 39.4893L9.14122 39.2451L4.44591 28.706L3.89784 28.9502ZM9.14175 39.4881L13.7824 28.949L13.2333 28.7072L8.59263 39.2463L9.14175 39.4881ZM13.5078 29.1281H14.3828V28.5281H13.5078V29.1281ZM16.9609 28.8281H17.2609V28.5281H16.9609V28.8281ZM16.9609 29.7656V30.0656H17.2609V29.7656H16.9609ZM15.9844 29.7656H15.6844V30.0656H15.9844V29.7656ZM15.9844 28.8281V28.5281H15.6844V28.8281H15.9844ZM16.8828 31.7969H17.1828V31.4969H16.8828V31.7969ZM16.8828 40V40.3H17.1828V40H16.8828ZM16.0625 40H15.7625V40.3H16.0625V40ZM16.0625 31.7969V31.4969H15.7625V31.7969H16.0625ZM16.6609 28.8281V29.7656H17.2609V28.8281H16.6609ZM16.9609 29.4656H15.9844V30.0656H16.9609V29.4656ZM16.2844 29.7656V28.8281H15.6844V29.7656H16.2844ZM15.9844 29.1281H16.9609V28.5281H15.9844V29.1281ZM16.5828 31.7969V40H17.1828V31.7969H16.5828ZM16.8828 39.7H16.0625V40.3H16.8828V39.7ZM16.3625 40V31.7969H15.7625V40H16.3625ZM16.0625 32.0969H16.8828V31.4969H16.0625V32.0969ZM24.7812 35.3906L24.7456 35.6885L25.0813 35.7287V35.3906H24.7812ZM19.8203 32.8906H19.5203V33.2916L19.905 33.1784L19.8203 32.8906ZM19.8203 32.1875L19.7357 31.8997L19.5203 31.963V32.1875H19.8203ZM25.6016 40V40.3H25.9016V40H25.6016ZM25.1016 40L24.8092 40.0675L24.8629 40.3H25.1016V40ZM24.9141 39.1875L25.2064 39.12L25.1187 38.7402L24.774 38.9222L24.9141 39.1875ZM24.7812 38.5L24.9336 38.7584L25.0813 38.6714V38.5H24.7812ZM24.7812 36.0938H25.0813V35.8275L24.8169 35.7959L24.7812 36.0938ZM19.3781 37.6797C19.3781 36.9374 19.6203 36.4246 20.071 36.0854C20.5378 35.7342 21.2738 35.5344 22.3281 35.5344V34.9344C21.2158 34.9344 20.3268 35.1421 19.7103 35.606C19.0776 36.082 18.7781 36.7917 18.7781 37.6797H19.3781ZM22.3281 35.5344C23.0803 35.5344 23.886 35.5855 24.7456 35.6885L24.8169 35.0928C23.9369 34.9874 23.1072 34.9344 22.3281 34.9344V35.5344ZM25.0813 35.3906V34.3828H24.4812V35.3906H25.0813ZM25.0813 34.3828C25.0813 33.6884 24.8596 33.1204 24.3762 32.7359C23.9059 32.3619 23.2349 32.2 22.4141 32.2V32.8C23.1714 32.8 23.6839 32.9519 24.0027 33.2055C24.3084 33.4486 24.4812 33.822 24.4812 34.3828H25.0813ZM22.4141 32.2C21.5391 32.2 20.646 32.3351 19.7357 32.6028L19.905 33.1784C20.7654 32.9254 21.6015 32.8 22.4141 32.8V32.2ZM20.1203 32.8906V32.1875H19.5203V32.8906H20.1203ZM19.905 32.4753C20.7654 32.2222 21.6015 32.0969 22.4141 32.0969V31.4969C21.5391 31.4969 20.646 31.6319 19.7357 31.8997L19.905 32.4753ZM22.4141 32.0969C23.4446 32.0969 24.162 32.304 24.6174 32.668C25.06 33.0216 25.3016 33.5611 25.3016 34.3438H25.9016C25.9016 33.4285 25.6118 32.6945 24.992 32.1992C24.3849 31.7142 23.5086 31.4969 22.4141 31.4969V32.0969ZM25.3016 34.3438V40H25.9016V34.3438H25.3016ZM25.6016 39.7H25.1016V40.3H25.6016V39.7ZM25.3939 39.9325L25.2064 39.12L24.6217 39.255L24.8092 40.0675L25.3939 39.9325ZM24.774 38.9222C23.7824 39.4457 22.8354 39.7 21.9297 39.7V40.3C22.9511 40.3 23.9937 40.0126 25.0541 39.4528L24.774 38.9222ZM21.9297 39.7C21.0121 39.7 20.3796 39.5121 19.9804 39.1872C19.5929 38.872 19.3781 38.3887 19.3781 37.6797H18.7781C18.7781 38.5176 19.0386 39.1944 19.6017 39.6526C20.1529 40.1012 20.9462 40.3 21.9297 40.3V39.7ZM22.3281 35.6375C21.492 35.6375 20.8112 35.7837 20.3326 36.1223C19.835 36.4743 19.5984 37.0033 19.5984 37.6562H20.1984C20.1984 37.1633 20.3668 36.833 20.6791 36.6121C21.0104 36.3777 21.5445 36.2375 22.3281 36.2375V35.6375ZM19.5984 37.6562C19.5984 38.2683 19.791 38.7755 20.2177 39.1201C20.6322 39.4549 21.22 39.5969 21.9297 39.5969V38.9969C21.2852 38.9969 20.8574 38.8655 20.5948 38.6533C20.3444 38.4511 20.1984 38.1379 20.1984 37.6562H19.5984ZM21.9297 39.5969C22.9858 39.5969 23.9886 39.3156 24.9336 38.7584L24.6289 38.2416C23.7718 38.7469 22.8736 38.9969 21.9297 38.9969V39.5969ZM25.0813 38.5V36.0938H24.4812V38.5H25.0813ZM24.8169 35.7959C23.9369 35.6905 23.1072 35.6375 22.3281 35.6375V36.2375C23.0803 36.2375 23.886 36.2887 24.7456 36.3916L24.8169 35.7959ZM29.1641 28.8281H29.4641V28.5281H29.1641V28.8281ZM29.1641 29.7656V30.0656H29.4641V29.7656H29.1641ZM28.1875 29.7656H27.8875V30.0656H28.1875V29.7656ZM28.1875 28.8281V28.5281H27.8875V28.8281H28.1875ZM29.0859 31.7969H29.3859V31.4969H29.0859V31.7969ZM27.875 42.875L27.6785 43.1017L27.8718 43.2692L28.0678 43.1049L27.875 42.875ZM27.2891 42.3672L27.0859 42.1464L26.8387 42.3739L27.0926 42.5939L27.2891 42.3672ZM28.2656 31.7969V31.4969H27.9656V31.7969H28.2656ZM28.8641 28.8281V29.7656H29.4641V28.8281H28.8641ZM29.1641 29.4656H28.1875V30.0656H29.1641V29.4656ZM28.4875 29.7656V28.8281H27.8875V29.7656H28.4875ZM28.1875 29.1281H29.1641V28.5281H28.1875V29.1281ZM28.7859 31.7969V39.375H29.3859V31.7969H28.7859ZM28.7859 39.375C28.7859 40.9931 28.3905 42.0511 27.6822 42.6451L28.0678 43.1049C28.9741 42.3448 29.3859 41.0694 29.3859 39.375H28.7859ZM28.0715 42.6483L27.4855 42.1405L27.0926 42.5939L27.6785 43.1017L28.0715 42.6483ZM27.4922 42.588C28.2329 41.9065 28.5656 40.8072 28.5656 39.375H27.9656C27.9656 40.7345 27.6473 41.63 27.0859 42.1464L27.4922 42.588ZM28.5656 39.375V31.7969H27.9656V39.375H28.5656ZM28.2656 32.0969H29.0859V31.4969H28.2656V32.0969ZM38.4062 36.0781V36.3781H38.6905L38.7058 36.0943L38.4062 36.0781ZM32.1797 36.0781V35.7781H31.8797V36.0781H32.1797ZM38.0703 38.9062H38.3703V38.4795L37.9688 38.624L38.0703 38.9062ZM38.0703 39.6094L38.1719 39.8917L38.3703 39.8203V39.6094H38.0703ZM32.1797 35.3438L31.88 35.329L31.8646 35.6438H32.1797V35.3438ZM37.6328 35.3438V35.6438H37.9378L37.9328 35.3388L37.6328 35.3438ZM35.0547 32.0969C36.1225 32.0969 36.8707 32.3909 37.3575 32.9296C37.8495 33.4741 38.1219 34.3204 38.1219 35.5234H38.7219C38.7219 34.2421 38.4331 33.2251 37.8027 32.5274C37.167 31.8239 36.2316 31.4969 35.0547 31.4969V32.0969ZM38.1219 35.5234C38.1219 35.6947 38.1168 35.8741 38.1067 36.0619L38.7058 36.0943C38.7165 35.8967 38.7219 35.7064 38.7219 35.5234H38.1219ZM38.4062 35.7781H32.1797V36.3781H38.4062V35.7781ZM31.8797 36.0781C31.8797 37.2018 32.1778 38.0985 32.8252 38.7102C33.4694 39.319 34.4084 39.5969 35.5859 39.5969V38.9969C34.4927 38.9969 33.7285 38.7383 33.2373 38.2741C32.7493 37.813 32.4797 37.1003 32.4797 36.0781H31.8797ZM35.5859 39.5969C36.5457 39.5969 37.4093 39.4629 38.1719 39.1885L37.9688 38.624C37.2835 38.8705 36.4907 38.9969 35.5859 38.9969V39.5969ZM37.7703 38.9062V39.6094H38.3703V38.9062H37.7703ZM37.9688 39.3271C37.2835 39.5736 36.4907 39.7 35.5859 39.7V40.3C36.5457 40.3 37.4093 40.166 38.1719 39.8917L37.9688 39.3271ZM35.5859 39.7C34.2228 39.7 33.2556 39.3619 32.6274 38.7383C31.9995 38.1151 31.6594 37.1563 31.6594 35.8047H31.0594C31.0594 37.2499 31.4237 38.3888 32.2047 39.1641C32.9853 39.9389 34.1314 40.3 35.5859 40.3V39.7ZM31.6594 35.8047C31.6594 34.5092 31.9585 33.5936 32.5038 33.0022C33.0448 32.4154 33.8757 32.0969 35.0547 32.0969V31.4969C33.7701 31.4969 32.7534 31.8463 32.0626 32.5955C31.3761 33.34 31.0594 34.4283 31.0594 35.8047H31.6594ZM32.1797 35.6438H37.6328V35.0437H32.1797V35.6438ZM37.9328 35.3388C37.9165 34.3474 37.6847 33.5497 37.1877 32.9983C36.6846 32.4404 35.9551 32.1844 35.0547 32.1844V32.7844C35.8417 32.7844 36.3857 33.0049 36.742 33.4001C37.1043 33.8019 37.3179 34.4338 37.3329 35.3487L37.9328 35.3388ZM35.0547 32.1844C34.0924 32.1844 33.3099 32.4368 32.7572 32.9865C32.2067 33.534 31.9291 34.3319 31.88 35.329L32.4793 35.3585C32.524 34.4493 32.7725 33.8175 33.1803 33.4119C33.5859 33.0085 34.1941 32.7844 35.0547 32.7844V32.1844ZM40.375 39.6094H40.075V39.8357L40.2926 39.8978L40.375 39.6094ZM40.375 38.8281L40.4723 38.5443L40.075 38.4081V38.8281H40.375ZM46.2031 32.1875H46.5031V31.9612L46.2855 31.899L46.2031 32.1875ZM46.2031 32.9688L46.1058 33.2525L46.5031 33.3888V32.9688H46.2031ZM40.675 39.6094V38.8281H40.075V39.6094H40.675ZM40.2777 39.1119C41.2175 39.4341 42.1462 39.5969 43.0625 39.5969V38.9969C42.2184 38.9969 41.3554 38.8471 40.4723 38.5443L40.2777 39.1119ZM43.0625 39.5969C43.9465 39.5969 44.6609 39.4584 45.1627 39.14C45.6876 38.807 45.9484 38.297 45.9484 37.6562H45.3484C45.3484 38.1092 45.1783 38.4195 44.8412 38.6334C44.4811 38.8619 43.9024 38.9969 43.0625 38.9969V39.5969ZM45.9484 37.6562C45.9484 37.1312 45.753 36.6996 45.3409 36.4137C44.9487 36.1415 44.3978 36.0281 43.7344 36.0281V36.6281C44.347 36.6281 44.7531 36.7361 44.9989 36.9066C45.2248 37.0634 45.3484 37.2959 45.3484 37.6562H45.9484ZM43.7344 36.0281H42.6875V36.6281H43.7344V36.0281ZM42.6875 36.0281C41.8634 36.0281 41.3013 35.8523 40.948 35.5525C40.6041 35.2607 40.4094 34.8095 40.4094 34.1406H39.8094C39.8094 34.9301 40.0443 35.5726 40.5598 36.01C41.0659 36.4394 41.7928 36.6281 42.6875 36.6281V36.0281ZM40.4094 34.1406C40.4094 33.4431 40.6569 32.9567 41.1327 32.6301C41.6288 32.2896 42.4104 32.0969 43.5234 32.0969V31.4969C42.3604 31.4969 41.435 31.6948 40.7931 32.1355C40.1308 32.5901 39.8094 33.2757 39.8094 34.1406H40.4094ZM43.5234 32.0969C44.3683 32.0969 45.2338 32.2226 46.1207 32.476L46.2855 31.899C45.3495 31.6316 44.4285 31.4969 43.5234 31.4969V32.0969ZM45.9031 32.1875V32.9688H46.5031V32.1875H45.9031ZM46.3004 32.685C45.3608 32.3628 44.4347 32.2 43.5234 32.2V32.8C44.3622 32.8 45.2225 32.9497 46.1058 33.2525L46.3004 32.685ZM43.5234 32.2C42.6369 32.2 41.9208 32.3384 41.4178 32.6566C40.8916 32.9895 40.6297 33.4994 40.6297 34.1406H41.2297C41.2297 33.6881 41.4001 33.3777 41.7385 33.1637C42.1001 32.935 42.6808 32.8 43.5234 32.8V32.2ZM40.6297 34.1406C40.6297 34.6756 40.8002 35.1243 41.1817 35.4296C41.5505 35.7246 42.0695 35.8469 42.6875 35.8469V35.2469C42.1336 35.2469 41.7737 35.1348 41.5565 34.9611C41.3522 34.7975 41.2297 34.5432 41.2297 34.1406H40.6297ZM42.6875 35.8469H43.7344V35.2469H42.6875V35.8469ZM43.7344 35.8469C44.6156 35.8469 45.2215 36.0183 45.6019 36.3118C45.9676 36.5938 46.1687 37.0232 46.1687 37.6562H46.7688C46.7688 36.883 46.5142 36.2577 45.9684 35.8367C45.4374 35.427 44.676 35.2469 43.7344 35.2469V35.8469ZM46.1687 37.6562C46.1687 38.3541 45.9216 38.8404 45.4471 39.1669C44.9524 39.5073 44.1728 39.7 43.0625 39.7V40.3C44.223 40.3 45.1465 40.1021 45.7872 39.6612C46.4482 39.2064 46.7688 38.5209 46.7688 37.6562H46.1687ZM43.0625 39.7C42.2122 39.7 41.3441 39.5743 40.4574 39.3209L40.2926 39.8978C41.2288 40.1653 42.1524 40.3 43.0625 40.3V39.7Z" fill="black"/>
<path d="M76.66 28.9817C76.2145 29.8719 70.9528 37.2155 65.9416 42L52.9959 25.6437C51.0471 23.1587 48.0683 16.8759 51.7431 11.624C56.3367 5.05928 64.5496 5.05928 64.6888 5.05928C64.828 5.05928 72.6232 4.16914 77.9128 9.28744C83.2024 14.4057 81.9496 18.0775 81.6712 20.0804C81.4485 21.6826 78.2376 26.6822 76.66 28.9817Z" stroke="black" stroke-width="3"/>
<path d="M73.5 16C73.5 18.7086 70.5148 21.5 66 21.5C61.4852 21.5 58.5 18.7086 58.5 16C58.5 13.2914 61.4852 10.5 66 10.5C70.5148 10.5 73.5 13.2914 73.5 16Z" stroke="black" stroke-width="3"/>
</svg>
