<?xml version="1.0" encoding="iso-8859-1"?>
<!-- Generator: Adobe Illustrator 19.0.0, SVG Export Plug-In . SVG Version: 6.00 Build 0)  -->
<svg version="1.1" id="Layer_1" xmlns="http://www.w3.org/2000/svg" xmlns:xlink="http://www.w3.org/1999/xlink" x="0px" y="0px"
	 viewBox="0 0 511.999 511.999" style="enable-background:new 0 0 511.999 511.999;" xml:space="preserve">
<path style="fill:#AF8B64;" d="M358.363,468.107c0,0,0.703-212.231-22.164-308.541c-0.718-3.025,1.058-6.083,4.034-6.983l0,0
	c3.082-0.932,6.341,0.776,7.32,3.843c8.266,25.903,42.315,150.801,49.456,311.681H358.363z"/>
<path style="fill:#CCA576;" d="M377.969,468.108h-19.61c0,0,0.69-204.92-20.99-303.42c-0.37-1.76-0.75-3.49-1.15-5.18
	c-0.19-0.79-0.21-1.58-0.08-2.33c0.01-0.13,0.03-0.25,0.07-0.37c0.46-2.06,1.99-3.8,4.14-4.45c0.04-0.01,0.08-0.02,0.12-0.03
	c0.02,0.06,0.03,0.12,0.05,0.18C350.999,190.118,378.519,317.088,377.969,468.108z"/>
<path style="fill:#68DD92;" d="M336.638,157.902c-12.127,10.534-67.989,64.642-70.834,169.712c-0.058,2.156,1.784,3.893,3.932,3.702
	c5.784-0.513,16.082-3.817,18.861-20.412l0,0c1.575,5.302,7.824,7.519,12.427,4.454c6.027-4.014,12.544-11.389,12.221-24.448
	c-0.06-2.426-0.356-5.049-0.936-7.883c0,0,21.31,6.057,17.766-30.221c0,0,11.76,4.867,14.25-8.133
	c2.49-13.001-22.026-24.589-4.658-57.488c0,0,15.859-16.751,1.736-29.285C340.051,156.697,338.004,156.715,336.638,157.902z"/>
<g>
	<path style="fill:#57C17B;" d="M345.624,156.316c15.706,3.37,90.745,23.785,143.956,114.426c1.096,1.866,0.31,4.276-1.671,5.148
		c-5.318,2.341-15.922,4.403-26.356-8.776l0,0c1.18,5.404-3.222,10.363-8.733,9.9c-7.216-0.605-16.483-3.917-22.504-15.51
		c-1.119-2.154-2.125-4.594-2.986-7.355c0,0-15.739,15.593-30.147-17.888c0,0-7.949,9.94-16.405-0.243s7.419-32.168-23.672-52.594
		c0,0-21.975-7.012-15.657-24.808C342.054,156.909,343.854,155.937,345.624,156.316z"/>
	<path style="fill:#57C17B;" d="M334.179,147.768c11.129-10.908,64.799-57.329,165.671-49.958c2.058,0.15,3.576,1.998,3.331,4.047
		c-0.642,5.381-4.096,14.713-20.193,15.733l0,0c5.087,1.985,7.078,8.061,4.001,12.087c-4.028,5.272-11.317,10.683-23.934,9.13
		c-2.344-0.288-4.872-0.817-7.598-1.632c0,0,5.333,20.577-29.65,13.782c0,0,4.417,11.501-8.212,12.594s-23.232-23.02-55.462-9.868
		c0,0-16.492,13.209-28.258-1.054C332.69,151.192,332.847,149.074,334.179,147.768z"/>
</g>
<g>
	<path style="fill:#68DD92;" d="M333.66,157.253c-5.992-11.947-26.181-60.591,0.533-130.59c0.901-2.36,3.721-3.404,5.88-2.094
		c3.643,2.211,7.859,7.083,5.365,17.506l0,0c2.601-3.283,7.504-3.374,9.763-0.211c2.957,4.141,5.282,10.705,1.301,19.607
		c-0.74,1.654-1.697,3.389-2.908,5.203c0,0,16.287,0.725,3.424,24.846c0,0,9.427-0.648,7.383,8.859
		c-2.044,9.506-22.111,11.848-19.73,38.444c0,0,5.681,14.344-6.216,20.07C336.681,159.749,334.543,159.014,333.66,157.253z"/>
	<path style="fill:#68DD92;" d="M339.125,142.485c-14.332-5.581-82.353-27.743-169.274,14.599c-2.005,0.977-2.669,3.487-1.424,5.338
		c3.049,4.531,10.192,11.079,24.622,6.365l0,0c-3.666,3.557-2.836,9.637,1.639,12.1c5.884,3.239,14.755,5.45,25.365-0.435
		c1.967-1.091,3.994-2.46,6.073-4.153c0,0,4.174,20.107,32.449,1.622c0,0,1.051,11.75,12.798,8.215s10.742-28.65,45.22-28.506
		c0,0,20.254,5.749,24.7-10.76C341.78,145.06,340.871,143.164,339.125,142.485z"/>
</g>
<path style="fill:#FFD066;" d="M287.076,470.088H48.516v-40.663c0-65.836,53.371-119.207,119.207-119.207h0.145
	c65.836,0,119.207,53.371,119.207,119.207v40.663H287.076z"/>
<path style="fill:#FCBE42;" d="M167.869,310.217h-0.145c-3.344,0-6.653,0.145-9.927,0.415c61.191,5.045,109.28,56.3,109.28,118.792
	v40.663h20v-40.663C287.076,363.588,233.705,310.217,167.869,310.217z"/>
<path style="fill:#68DD92;" d="M245.222,428.284v41.802H90.377v-41.802c0.576-42.147,35.083-76.267,77.417-76.267
	S244.646,386.137,245.222,428.284z"/>
<path style="fill:#7AC9E5;" d="M245.222,428.284v41.802H90.377v-41.802c0.576-42.147,35.083-76.267,77.417-76.267
	S244.646,386.137,245.222,428.284z"/>
<path style="fill:#F24E5E;" d="M167.794,352.016v118.069H90.377v-41.802C90.953,386.137,125.46,352.016,167.794,352.016z"/>
<path style="fill:#E8BF89;" d="M463.172,443.779c-20.716,0-20.716,20.7-41.431,20.7c-20.717,0-20.717-20.7-41.433-20.7
	c-20.717,0-20.717,20.7-41.434,20.7c-20.716,0-20.716-20.7-41.433-20.7c-20.714,0-20.714,20.7-41.428,20.7
	c-20.717,0-20.717-20.7-41.433-20.7c-20.717,0-20.717,20.7-41.434,20.7c-20.718,0-20.718-20.7-41.436-20.7
	c-20.717,0-20.717,20.7-41.434,20.7c-20.72,0-20.72-20.7-41.44-20.7c-17.445,0-34.891,14.674-39.969,19.312
	c-0.973,0.888-1.504,2.184-1.337,3.49c1.532,12.005,16.066,21.417,33.77,21.417h429.398c17.703,0,32.238-9.412,33.771-21.416
	c0.167-1.306-0.364-2.601-1.337-3.49C498.054,458.453,480.613,443.779,463.172,443.779z"/>
<g>
	<path style="fill:#CCA576;" d="M318.873,464.48c4.012,0,7.241-0.782,10-2.033c-11.488-5.21-14.728-18.658-31.433-18.658
		c-4.012,0-7.241,0.782-10,2.033C298.928,451.033,302.169,464.48,318.873,464.48z"/>
	<path style="fill:#CCA576;" d="M401.741,464.48c4.012,0,7.241-0.782,10-2.033c-11.488-5.211-14.729-18.657-31.433-18.657
		c-4.012,0-7.241,0.782-10,2.033C381.795,451.033,385.036,464.48,401.741,464.48z"/>
	<path style="fill:#CCA576;" d="M236.012,464.48c4.012,0,7.241-0.782,10-2.033c-11.487-5.211-14.728-18.657-31.433-18.657
		c-4.012,0-7.241,0.782-10,2.033C216.067,451.033,219.308,464.48,236.012,464.48z"/>
	<path style="fill:#CCA576;" d="M70.276,464.48c4.011,0,7.24-0.781,9.999-2.033c-11.49-5.21-14.731-18.658-31.439-18.658
		c-3.637,0-7.272,0.644-10.797,1.695C50.183,450.419,53.189,464.48,70.276,464.48z"/>
	<path style="fill:#CCA576;" d="M153.146,464.48c4.012,0,7.241-0.782,10-2.033c-11.489-5.21-14.729-18.658-31.436-18.658
		c-4.012,0-7.241,0.782-10,2.033C133.199,451.033,136.44,464.48,153.146,464.48z"/>
	<path style="fill:#CCA576;" d="M503.132,463.093c-5.077-4.636-22.519-19.304-39.96-19.304c-3.633,0-6.62,0.646-9.202,1.696
		c13.379,3.992,25.144,13.939,29.162,17.608c0.972,0.888,1.504,2.182,1.337,3.488c-1.533,11.999-16.067,21.407-33.771,21.407h20
		c17.704,0,32.238-9.408,33.771-21.407C504.635,465.275,504.104,463.981,503.132,463.093z"/>
</g>
<circle style="fill:#AF8B64;" cx="340.089" cy="147.318" r="16.921"/>
<g>
	<circle style="fill:#FFD066;" cx="361.699" cy="160.998" r="16.921"/>
	<circle style="fill:#FFD066;" cx="328.739" cy="168.798" r="16.921"/>
</g>
<path d="M508.19,457.555c-7.001-6.396-25.404-21.275-45.019-21.275c-13.463,0-20.424,6.956-26.018,12.545
	c-4.737,4.734-8.161,8.155-15.413,8.155c-7.254,0-10.677-3.421-15.416-8.155c-0.945-0.944-1.934-1.928-2.982-2.91
	c-1.709-28.369-4.316-57.274-7.775-85.978c-0.495-4.113-4.233-7.039-8.344-6.549c-4.112,0.496-7.044,4.231-6.549,8.344
	c3.029,25.131,5.399,50.418,7.077,75.354c-2.245-0.506-4.704-0.806-7.445-0.806c-6.025,0-10.742,1.398-14.623,3.438
	c-0.59-51.723-3.259-165.046-15.095-244.063c7.262,29.046,17.428,75.149,25.818,133.72c0.535,3.74,3.743,6.438,7.414,6.438
	c0.354,0,0.713-0.025,1.073-0.077c4.101-0.587,6.948-4.387,6.36-8.487c-4.613-32.203-9.762-60.699-14.683-84.728
	c4.513,4.541,9.101,5.585,12.336,5.585c0.05,0,0.1,0,0.147-0.001c1.871-0.018,3.593-0.372,5.143-0.915
	c5.783,10.273,12.591,16.223,20.305,17.721c3.37,0.655,6.395,0.373,8.967-0.322c0.063,0.126,0.128,0.252,0.192,0.377
	c5.996,11.544,16.126,18.479,28.53,19.526c4.389,0.369,8.747-1.125,11.974-4.092c0.086-0.08,0.172-0.16,0.257-0.242
	c5.475,3.767,10.806,4.965,15.376,4.965c4.779-0.001,8.726-1.312,11.127-2.368c2.907-1.278,5.134-3.744,6.111-6.767
	c0.976-3.02,0.613-6.317-0.991-9.046c-34.449-58.682-77.838-88.882-109.997-104.189c0.116-1.604,0.073-3.237-0.141-4.882
	c5.61,1.209,10.1,4.026,14.486,6.793c5.01,3.161,10.178,6.423,16.336,6.423c0.497,0,1.002-0.021,1.513-0.065
	c7.8-0.674,11.66-4.37,13.525-7.352c0.832-1.331,1.388-2.706,1.742-4.063c11.394,0.922,19.717-1.34,24.799-6.747
	c1.985-2.112,3.212-4.395,3.946-6.594c12.694,1.525,23.587-2.743,30.694-12.036c1.962-2.569,2.999-5.647,2.999-8.901
	c0-0.987-0.098-1.962-0.284-2.914c3.405-1.426,6.304-3.398,8.672-5.909c3.483-3.692,5.658-8.451,6.287-13.739
	c0.366-3.005-0.527-6.07-2.452-8.41c-1.924-2.34-4.759-3.808-7.777-4.028c-70.558-5.15-118.959,15.705-145.3,32.037
	c1.959-3.131,4.629-5.427,7.386-7.795c3.944-3.39,8.023-6.895,9.25-12.608c1.418-6.569-0.698-10.739-2.722-13.08
	c-0.562-0.648-1.159-1.212-1.779-1.701c3.013-8.127,3.011-14.692,0.023-19.929c-0.957-1.68-2.113-3.009-3.34-4.063
	c3.642-9.136,2.732-18.206-2.599-25.662c-1.926-2.711-4.726-4.522-7.925-5.19c-1.312-8.233-6.609-12.471-9.417-14.171
	c-2.899-1.767-6.415-2.148-9.648-1.05c-3.285,1.118-5.886,3.617-7.142,6.879c-16.637,43.587-15.844,79.352-10.872,104.26
	c-12.095-2.437-28.008-4.437-46.749-3.98c-4.141,0.101-7.416,3.539-7.315,7.681c0.1,4.078,3.437,7.317,7.494,7.317
	c0.062,0,0.124-0.001,0.187-0.002c18.847-0.458,34.567,1.74,46.033,4.235c-0.242,1.537-0.335,3.098-0.277,4.667
	c-0.972,0.615-1.9,1.293-2.776,2.042c-23.818,1.111-32.446,13.839-38.227,22.383c-1.968,2.91-4.004,5.918-5.471,6.359
	c-1.438,0.432-2.19,0.357-2.313,0.315c-0.275-0.21-0.726-1.237-0.85-2.076c-0.161-2.653-1.71-4.896-4.085-6.1
	c-2.395-1.214-5.242-0.922-7.486,0.546c-11.874,7.765-17.021,6.733-18.315,6.233c-1.878-0.727-2.571-2.745-2.7-3.179
	c-0.444-2.608-2.205-4.627-4.683-5.574c-2.506-0.957-5.297-0.334-7.377,1.356c-1.669,1.356-3.345,2.503-4.99,3.413
	c-6.329,3.512-12.25,3.652-18.153,0.398l0.01-0.112c2.509-2.429,3.009-6.269,1.207-9.26s-5.43-4.34-8.751-3.259
	c-5.356,1.749-9.548,1.706-12.688-0.155c20.452-9.459,41.348-15.987,62.187-19.42c4.087-0.674,6.854-4.532,6.181-8.619
	c-0.673-4.088-4.534-6.849-8.62-6.182c-23.941,3.944-47.902,11.704-71.206,23.057c-2.91,1.411-5.059,4.01-5.898,7.131
	c-0.84,3.126-0.28,6.46,1.528,9.137c2.608,3.874,9.223,11.329,21.462,11.329c0.011,0,0.021,0,0.032,0
	c1.017,4.016,3.655,7.493,7.367,9.521c10.283,5.667,21.854,5.513,32.576-0.427c1.645,1.791,3.815,3.476,6.667,4.659
	c6.786,2.819,15.108,1.771,24.817-3.106c0.904,1.127,2.009,2.196,3.358,3.11c1.954,1.321,4.866,2.604,8.806,2.604
	c1.851,0,3.928-0.283,6.238-0.978c6.578-1.98,10.134-7.235,13.572-12.317c3.92-5.794,7.943-11.733,17.311-14.409
	c-0.206,2.312-0.084,4.666,0.385,7.005c0.425,2.12,1.139,4.13,2.069,6.02c-21.832,29.161-46.658,77.478-48.557,147.793
	c-0.088,3.163,1.186,6.224,3.494,8.397c2.069,1.948,4.802,3.023,7.628,3.023c0.325,0,0.651-0.014,0.979-0.043
	c5.115-0.461,15.866-2.921,21.956-15.057c1.305,0.345,2.674,0.526,4.081,0.526c3.096,0,6.113-0.916,8.738-2.658
	c10.353-6.897,15.879-17.862,15.56-30.875c-0.004-0.14-0.008-0.279-0.013-0.42c2.588-0.631,5.371-1.848,8.003-4.046
	c6.032-5.036,9.122-13.534,9.228-25.322c1.572-0.265,3.202-0.771,4.802-1.612c6.545,75.565,7.801,159.268,8.032,192.861
	c-3.268,2.908-6.541,4.794-11.925,4.794c-7.254,0-10.677-3.421-15.416-8.155c-5.593-5.589-12.554-12.545-26.017-12.545
	c-0.992,0-1.939,0.048-2.862,0.121v-6.972c0-69.868-56.842-126.71-126.71-126.71h-0.14c-19.597,0-38.388,4.354-55.852,12.942
	c-3.717,1.828-5.248,6.323-3.42,10.04c1.827,3.717,6.323,5.249,10.04,3.421c15.385-7.566,31.949-11.403,49.231-11.403h0.14
	c61.597,0,111.71,50.113,111.71,111.71v12.256c-3.21,2.212-5.807,4.794-8.154,7.14c-4.737,4.734-8.16,8.155-15.412,8.155
	c-1.197,0-2.282-0.102-3.293-0.278v-28.414c0-0.034,0-0.067,0-0.102c-0.625-46.135-38.719-83.669-84.92-83.669
	c-46.2,0-84.295,37.534-84.919,83.669c0,0.034,0,0.067,0,0.102v27.077c-2.912-1.448-5.244-3.766-8.022-6.542
	c-4.5-4.496-9.893-9.87-18.837-11.802v-7.594c0-31.945,13.722-62.428,37.647-83.631c3.1-2.748,3.386-7.488,0.638-10.588
	c-2.747-3.099-7.487-3.386-10.587-0.639c-27.133,24.05-42.696,58.624-42.696,94.859v7.608c-16.54,3.096-31.148,14.981-37.211,20.519
	c-2.799,2.558-4.189,6.288-3.718,9.978c2.036,15.943,19.752,27.966,41.21,27.966h429.398c21.457,0,39.174-12.022,41.21-27.965
	C512.38,463.843,510.99,460.112,508.19,457.555z M323.522,176.638c-2.095-1.395-3.521-3.522-4.016-5.989v-0.001
	c-1.021-5.095,2.291-10.07,7.384-11.092c0.622-0.125,1.242-0.185,1.854-0.185c4.396,0,8.339,3.1,9.235,7.57
	c0.641,3.195-0.425,6.343-2.564,8.498c-0.025,0.023-0.05,0.045-0.074,0.069c-1.262,1.245-2.883,2.151-4.746,2.525
	C328.13,178.53,325.616,178.033,323.522,176.638z M370.932,159.144c1.021,5.095-2.291,10.07-7.384,11.092
	c-2.467,0.496-4.979-0.001-7.074-1.396c-2.095-1.396-3.521-3.522-4.016-5.99s0.001-4.98,1.396-7.076
	c1.395-2.095,3.521-3.521,5.988-4.016c0.623-0.125,1.243-0.185,1.855-0.185C366.093,151.574,370.036,154.674,370.932,159.144z
	 M338.236,138.081c1.413-0.284,2.839-0.231,4.194,0.118c0.126,0.039,0.257,0.066,0.386,0.098c0.872,0.265,1.709,0.66,2.489,1.179
	c0.764,0.509,1.437,1.117,2.01,1.8c-2.299,1.678-4.323,3.746-5.947,6.186c-0.071,0.106-0.135,0.216-0.204,0.324
	c-3.036-1.796-6.462-2.943-10.06-3.295c0.264-0.836,0.643-1.641,1.143-2.391C333.641,140.004,335.768,138.577,338.236,138.081z
	 M480.456,270.1c-4.509,0.189-8.847-2.36-13.028-7.64c-2.166-2.735-5.932-3.614-9.085-2.123s-4.862,4.959-4.124,8.368
	c0.014,0.064,0.021,0.122,0.021,0.182c0,0.229-0.143,0.394-0.228,0.472c-0.205,0.188-0.42,0.198-0.561,0.185
	c-7.395-0.625-12.784-4.384-16.474-11.488c-0.956-1.844-1.793-3.909-2.488-6.14c-0.796-2.554-2.783-4.604-5.392-5.195
	c-2.587-0.586-5.179,0.126-6.997,2.046c-0.37,0.316-2.411,1.923-4.846,1.396c-1.966-0.427-7.186-2.925-13.188-16.87
	c-1.059-2.46-3.274-4.266-5.935-4.579c-2.647-0.311-5.181,0.705-6.784,2.823c-0.64,0.724-1.844,1.568-2.44,1.568
	c-0.001,0-0.003,0-0.004,0c-0.321-0.002-1.213-0.505-2.356-1.882c-1.188-1.43-1.224-5.272-1.261-9.341
	c-0.09-9.93-0.235-24.21-15.246-37.932c4.128-1.498,7.662-4.051,10.36-7.276C409.675,190.763,448.654,218.037,480.456,270.1z
	 M494.42,104.972c-1.476,2.297-4.692,4.674-11.904,5.13c-3.513,0.223-6.397,2.856-6.938,6.334s1.41,6.862,4.688,8.14
	c0.46,0.18,0.625,0.505,0.669,0.67c-3.917,5.038-9.469,7.036-16.958,6.118c-2.001-0.247-4.146-0.709-6.377-1.374
	c-2.646-0.791-5.563-0.217-7.511,1.746c-1.928,1.943-2.687,4.626-1.914,7.245c0.068,0.407,0.342,2.45-0.846,3.656
	c-1.94,1.971-8.237,3.259-20.093,0.958c-2.672-0.522-5.424,0.454-7.176,2.544c-1.752,2.089-2.231,4.965-1.254,7.51
	c0.105,0.273,0.32,1.396,0.237,1.979c-0.294,0.137-0.957,0.35-2.095,0.448c-1.833,0.145-5.236-2.008-8.551-4.099
	c-7.132-4.501-16.703-10.51-30.954-9.629c-0.705-0.593-1.436-1.161-2.214-1.679c-3.987-2.655-8.558-4.048-13.236-4.097
	c-0.105-0.215-0.197-0.438-0.308-0.649C385.288,120.982,429.364,101.32,494.42,104.972z M338.689,36.247
	c0.001,1.112-0.155,2.458-0.545,4.089c-0.817,3.422,0.854,6.952,4.02,8.489c2.643,1.283,5.731,0.888,7.952-0.883
	c1.465,3.059,1.308,6.503-0.467,10.471c-0.593,1.328-1.364,2.711-2.296,4.111c-1.498,2.252-1.667,5.137-0.442,7.549
	s3.653,3.978,6.355,4.097c0.007,0.001,0.794,0.226,0.957,0.512c0.017,0.029,1.628,3.083-3.823,13.308
	c-1.282,2.404-1.159,5.315,0.321,7.603c1.38,2.133,3.737,3.411,6.253,3.426c-0.525,0.956-2.842,2.946-4.27,4.174
	c-4.622,3.971-11.174,9.614-14.151,19.755c-1.09,0.071-2.183,0.209-3.272,0.429c-1.519,0.305-2.984,0.756-4.39,1.324
	C326.718,103.285,326,73.102,338.689,36.247z M336.963,243.257c-0.337,1.758-0.877,2.631-1.158,2.788
	c-0.521,0.293-1.993,0.137-2.907-0.189c-2.427-1.076-5.137-0.741-7.299,0.809c-2.176,1.56-3.244,4.208-2.984,6.872
	c1.475,15.105-1.891,19.813-3.406,21.137c-1.877,1.639-4.441,1.216-4.92,1.118c-2.521-0.804-5.135-0.176-7.116,1.588
	c-1.999,1.778-2.748,4.534-2.211,7.155c0.475,2.313,0.74,4.52,0.79,6.558c0.194,7.905-2.794,13.97-8.868,18.017
	c-0.151,0.101-0.293,0.149-0.434,0.149c-0.121,0-0.528-0.034-0.657-0.473c-0.989-3.351-4.163-5.564-7.646-5.363
	c-3.487,0.211-6.366,2.802-6.943,6.247c-1.112,6.638-3.7,10.981-7.712,12.976c2.764-62.162,24.42-105.389,44.012-132.183
	c3.481,1.814,7.298,2.764,11.191,2.764c0.046,0,0.092-0.003,0.137-0.003c-6.917,19.648-0.043,32.41,4.727,41.25
	C335.488,238.051,337.312,241.43,336.963,243.257z M237.719,428.34v17.673c-5.168-4.864-11.875-9.733-23.14-9.733
	c-13.463,0-20.424,6.956-26.018,12.545c-4.241,4.238-7.438,7.415-13.263,8.037v-96.93
	C209.861,363.671,237.215,392.914,237.719,428.34z M97.88,428.296c0.017-1.133,0.063-2.258,0.134-3.377
	c0.025-0.389,0.068-0.773,0.099-1.16c0.06-0.741,0.118-1.483,0.201-2.218c0.052-0.458,0.122-0.912,0.182-1.368
	c0.087-0.657,0.173-1.314,0.279-1.965c0.078-0.482,0.172-0.958,0.261-1.437c0.114-0.617,0.227-1.234,0.357-1.846
	c0.104-0.49,0.222-0.976,0.337-1.462c0.139-0.59,0.28-1.18,0.434-1.764c0.13-0.493,0.271-0.982,0.411-1.471
	c0.163-0.567,0.33-1.134,0.507-1.695c0.155-0.491,0.318-0.979,0.484-1.466c0.187-0.55,0.38-1.097,0.58-1.64
	c0.179-0.485,0.363-0.968,0.553-1.448c0.211-0.535,0.429-1.065,0.653-1.594c0.202-0.477,0.406-0.952,0.618-1.423
	c0.234-0.52,0.478-1.034,0.724-1.547c0.224-0.467,0.448-0.933,0.682-1.394c0.258-0.507,0.526-1.008,0.796-1.508
	c0.244-0.453,0.487-0.908,0.741-1.355c0.282-0.496,0.576-0.983,0.869-1.472c0.263-0.438,0.521-0.878,0.793-1.309
	c0.309-0.49,0.632-0.969,0.953-1.451c0.277-0.416,0.547-0.836,0.832-1.245c0.343-0.493,0.703-0.973,1.059-1.457
	c0.282-0.384,0.556-0.774,0.846-1.152c0.444-0.579,0.906-1.141,1.367-1.706c0.419-0.513,0.845-1.02,1.278-1.52
	c0.481-0.556,0.96-1.112,1.457-1.652c0.328-0.356,0.67-0.698,1.005-1.047c0.408-0.425,0.813-0.855,1.231-1.271
	c0.361-0.357,0.734-0.702,1.103-1.052c0.411-0.39,0.819-0.783,1.239-1.164c0.384-0.347,0.778-0.682,1.169-1.021
	c0.421-0.364,0.84-0.73,1.27-1.085c0.403-0.333,0.814-0.655,1.225-0.979c0.435-0.343,0.87-0.686,1.313-1.019
	c0.418-0.314,0.842-0.619,1.267-0.924c0.451-0.324,0.903-0.645,1.362-0.958c0.431-0.295,0.868-0.583,1.306-0.867
	c0.467-0.304,0.938-0.604,1.412-0.897c0.443-0.273,0.89-0.542,1.339-0.806c0.485-0.284,0.974-0.562,1.466-0.835
	c0.453-0.251,0.907-0.5,1.365-0.741c0.505-0.265,1.014-0.522,1.526-0.775c0.459-0.227,0.918-0.454,1.382-0.672
	c0.527-0.247,1.061-0.482,1.595-0.716c0.461-0.202,0.92-0.406,1.386-0.598c0.554-0.229,1.116-0.443,1.677-0.658
	c0.458-0.175,0.913-0.355,1.375-0.521c0.594-0.213,1.196-0.408,1.798-0.605c0.438-0.144,0.873-0.295,1.316-0.431
	c0.673-0.206,1.355-0.391,2.037-0.576c0.381-0.104,0.757-0.219,1.14-0.317c1.021-0.26,2.051-0.497,3.089-0.71
	c0.048-0.01,0.095-0.023,0.143-0.033c1.089-0.222,2.187-0.416,3.292-0.586c0.35-0.054,0.705-0.091,1.056-0.14
	c0.68-0.094,1.361-0.186,2.047-0.26v91.412c-0.833-0.784-1.678-1.628-2.569-2.519c-5.594-5.589-12.555-12.545-26.019-12.545
	c-13.463,0-20.425,6.956-26.019,12.545c-2.712,2.71-4.997,4.986-7.813,6.44v-26.922C97.879,428.326,97.88,428.311,97.88,428.296z
	 M470.698,480.498H41.3c-13.89,0-23.744-6.537-25.937-13.152c9.164-7.993,22.335-16.066,33.473-16.066
	c7.255,0,10.68,3.421,15.419,8.156c5.594,5.589,12.556,12.544,26.021,12.544c0.026,0,0.049-0.002,0.074-0.002
	c0.01,0,0.019,0.001,0.029,0.001c0.044,0,0.087-0.006,0.131-0.007c13.306-0.082,20.224-6.981,25.784-12.537
	c4.738-4.734,8.162-8.155,15.416-8.155c7.254,0,10.678,3.421,15.417,8.155c5.594,5.589,12.555,12.545,26.019,12.545
	c13.463,0,20.424-6.956,26.018-12.545c4.738-4.734,8.162-8.155,15.416-8.155s10.677,3.421,15.416,8.155
	c5.593,5.589,12.555,12.545,26.018,12.545c13.462,0,20.423-6.956,26.016-12.545c4.737-4.734,8.16-8.155,15.413-8.155
	s10.677,3.421,15.414,8.155c5.594,5.589,12.555,12.545,26.019,12.545c13.463,0,20.425-6.956,26.018-12.545
	c4.739-4.734,8.162-8.155,15.416-8.155s10.677,3.421,15.416,8.155c5.593,5.589,12.555,12.545,26.018,12.545
	c13.462,0,20.423-6.956,26.017-12.545c4.737-4.734,8.161-8.155,15.414-8.155c11.135,0,24.303,8.073,33.463,16.065
	C494.442,473.96,484.588,480.498,470.698,480.498z"/>
<g>
</g>
<g>
</g>
<g>
</g>
<g>
</g>
<g>
</g>
<g>
</g>
<g>
</g>
<g>
</g>
<g>
</g>
<g>
</g>
<g>
</g>
<g>
</g>
<g>
</g>
<g>
</g>
<g>
</g>
</svg>
